<svg width="15" height="15" viewBox="0 0 15 15" fill="none" xmlns="http://www.w3.org/2000/svg">
<path d="M7.49161 4.42255V13.1181H11.1962H14.3647C14.6607 13.1181 14.9008 12.8781 14.9008 12.582V4.95881C14.9008 4.66277 14.6607 4.42271 14.3647 4.42271L7.49161 4.42255Z" fill="#CCD6DE"/>
<path d="M7.49161 4.42255V13.1181H3.78702H0.618523C0.322485 13.1181 0.082428 12.8781 0.082428 12.5819V4.95864C0.082428 4.6626 0.322485 4.42255 0.618523 4.42255H7.49161Z" fill="#E2E8ED"/>
<path d="M7.49161 13.1181C5.7437 11.5291 3.67078 10.6301 1.21439 10.5455C1.21439 10.4464 1.21439 1.86523 1.21439 1.86523C3.67078 1.94986 5.7437 2.84884 7.49161 4.4377V13.1181Z" fill="#CCD6DE"/>
<path d="M7.49161 13.1181C9.23952 11.5291 11.9093 11.195 14.2468 11.8778C14.2468 11.7787 14.2468 3.20876 14.2468 3.20876C11.6742 2.82941 9.23952 2.84884 7.49161 4.4377V13.1181Z" fill="#F3F3F3"/>
<path d="M7.49161 13.1181C9.23952 11.5291 11.3124 10.6301 13.7688 10.5455C13.7688 10.4464 13.7688 1.86523 13.7688 1.86523C11.3124 1.94986 9.23952 2.84884 7.49161 4.4377V13.1181Z" fill="#E0E8EF"/>
</svg>
