<svg width="14" height="14" viewBox="0 0 14 14" fill="none" xmlns="http://www.w3.org/2000/svg">
<g clip-path="url(#clip0_4_79)">
<path d="M6.99215 0.38797C6.77732 0.38797 6.58507 0.507527 6.48995 0.700078L4.68077 4.36607C4.66556 4.39681 4.63621 4.41801 4.6024 4.42293L0.556678 5.01088C0.34415 5.04177 0.171115 5.18776 0.104729 5.39199C0.0383429 5.59622 0.0925891 5.81612 0.246415 5.96611L3.17371 8.81964C3.1983 8.84361 3.20952 8.87803 3.20368 8.91169L2.51261 12.9408C2.47635 13.1524 2.56164 13.3623 2.73528 13.4885C2.90878 13.6147 3.13483 13.6309 3.32523 13.5314L6.94374 11.6288C6.9588 11.6209 6.9754 11.6169 6.992 11.6169C8.02498 8.36062 7.80676 4.51467 6.99215 0.38797Z" fill="#FFC850"/>
<path d="M6.99216 0.38797C7.20699 0.38797 7.39923 0.507527 7.49436 0.700078L9.30353 4.36607C9.31875 4.39681 9.3481 4.41801 9.38191 4.42293L13.4275 5.01088C13.64 5.04177 13.813 5.18776 13.8794 5.39199C13.9458 5.59622 13.8916 5.81612 13.7377 5.96611L10.8104 8.81964C10.7859 8.84361 10.7746 8.87803 10.7805 8.91169L11.4717 12.9408C11.508 13.1524 11.4227 13.3623 11.249 13.4885C11.0755 13.6147 10.8495 13.6309 10.6591 13.5314L7.04056 11.6288C7.0255 11.6209 7.00891 11.6169 6.99231 11.6169C5.77507 8.46635 6.04692 4.59412 6.99216 0.38797Z" fill="#FFDC64"/>
</g>
<defs>
<clipPath id="clip0_4_79">
<rect width="14" height="14" fill="white"/>
</clipPath>
</defs>
</svg>
