<svg width="126" height="42" viewBox="0 0 126 42" fill="none" xmlns="http://www.w3.org/2000/svg">
<circle cx="95" cy="21" r="21" fill="#F5C9D8"/>
<path d="M1.38867 27V14.1504H4.87793V27H1.38867ZM14.1627 27L11.5348 17.7451H11.4557C11.4791 17.9854 11.5025 18.3105 11.526 18.7207C11.5553 19.1309 11.5816 19.5732 11.6051 20.0479C11.6285 20.5225 11.6402 20.9795 11.6402 21.4189V27H8.56406V14.1504H13.1871L15.8678 23.2734H15.9381L18.566 14.1504H23.1979V27H20.0074V21.3662C20.0074 20.9619 20.0133 20.5283 20.025 20.0654C20.0426 19.5967 20.0602 19.1572 20.0777 18.7471C20.1012 18.3311 20.1217 18.0029 20.1393 17.7627H20.0602L17.4674 27H14.1627ZM34.7502 27L34.1174 24.5918H29.9426L29.2922 27H25.4777L29.6701 14.0977H34.302L38.5471 27H34.7502ZM33.3967 21.7441L32.843 19.6348C32.7844 19.4062 32.6994 19.0811 32.5881 18.6592C32.4768 18.2314 32.3654 17.792 32.2541 17.3408C32.1486 16.8838 32.0666 16.5088 32.008 16.2158C31.9553 16.5088 31.8791 16.8721 31.7795 17.3057C31.6857 17.7334 31.5861 18.1582 31.4807 18.5801C31.3811 19.002 31.2932 19.3535 31.217 19.6348L30.6633 21.7441H33.3967ZM46.0037 19.4766H51.5496V26.4023C50.8875 26.6309 50.1287 26.8184 49.2732 26.9648C48.4178 27.1055 47.5213 27.1758 46.5838 27.1758C45.3475 27.1758 44.2635 26.9355 43.3318 26.4551C42.4002 25.9746 41.6736 25.2451 41.1521 24.2666C40.6307 23.2822 40.3699 22.04 40.3699 20.54C40.3699 19.1924 40.6277 18.0293 41.1434 17.0508C41.659 16.0664 42.4178 15.3076 43.4197 14.7744C44.4275 14.2354 45.6609 13.9658 47.1199 13.9658C47.9227 13.9658 48.6844 14.042 49.4051 14.1943C50.1258 14.3467 50.7527 14.54 51.2859 14.7744L50.1873 17.499C49.7244 17.2705 49.2439 17.1006 48.7459 16.9893C48.2479 16.8721 47.7117 16.8135 47.1375 16.8135C46.3699 16.8135 45.7518 16.9863 45.283 17.332C44.8201 17.6777 44.4832 18.1406 44.2723 18.7207C44.0613 19.2949 43.9559 19.9307 43.9559 20.6279C43.9559 21.4248 44.0672 22.0986 44.2898 22.6494C44.5184 23.1943 44.8494 23.6104 45.283 23.8975C45.7225 24.1787 46.2527 24.3193 46.8738 24.3193C47.0789 24.3193 47.3279 24.3047 47.6209 24.2754C47.9197 24.2461 48.1453 24.2109 48.2977 24.1699V22.1572H46.0037V19.4766ZM62.6977 27H55.0687V14.1504H62.6977V16.9365H58.5404V18.958H62.39V21.7441H58.5404V24.1699H62.6977V27ZM74.25 23.0977C74.25 23.7949 74.0742 24.457 73.7227 25.084C73.3711 25.7051 72.8232 26.209 72.0791 26.5957C71.3408 26.9824 70.3857 27.1758 69.2139 27.1758C68.6279 27.1758 68.1123 27.1494 67.667 27.0967C67.2275 27.0439 66.8174 26.959 66.4365 26.8418C66.0557 26.7188 65.6602 26.5605 65.25 26.3672V23.2734C65.9473 23.625 66.6504 23.8945 67.3594 24.082C68.0684 24.2637 68.71 24.3545 69.2842 24.3545C69.6299 24.3545 69.9111 24.3135 70.1279 24.2314C70.3506 24.1494 70.5146 24.0381 70.6201 23.8975C70.7256 23.751 70.7783 23.584 70.7783 23.3965C70.7783 23.1738 70.6992 22.9863 70.541 22.834C70.3887 22.6758 70.1426 22.5117 69.8027 22.3418C69.4629 22.1719 69.0146 21.9609 68.458 21.709C67.9834 21.4863 67.5527 21.2578 67.166 21.0234C66.7852 20.7891 66.457 20.5225 66.1816 20.2236C65.9121 19.9189 65.7041 19.5645 65.5576 19.1602C65.4111 18.7559 65.3379 18.2783 65.3379 17.7275C65.3379 16.9014 65.54 16.21 65.9443 15.6533C66.3545 15.0908 66.9229 14.6689 67.6494 14.3877C68.3818 14.1064 69.2256 13.9658 70.1807 13.9658C71.0186 13.9658 71.7715 14.0596 72.4395 14.2471C73.1133 14.4346 73.7168 14.6484 74.25 14.8887L73.1865 17.5693C72.6357 17.3174 72.0938 17.1182 71.5605 16.9717C71.0273 16.8193 70.5322 16.7432 70.0752 16.7432C69.7764 16.7432 69.5303 16.7812 69.3369 16.8574C69.1494 16.9277 69.0088 17.0244 68.915 17.1475C68.8271 17.2705 68.7832 17.4111 68.7832 17.5693C68.7832 17.7686 68.8594 17.9473 69.0117 18.1055C69.1699 18.2637 69.4307 18.4365 69.7939 18.624C70.1631 18.8057 70.6641 19.043 71.2969 19.3359C71.9238 19.6172 72.457 19.9219 72.8965 20.25C73.3359 20.5723 73.6699 20.9619 73.8984 21.4189C74.1328 21.8701 74.25 22.4297 74.25 23.0977ZM82.8053 27H79.3336V16.9893H76.1959V14.1504H85.9342V16.9893H82.8053V27ZM100.695 20.5576C100.695 21.5479 100.574 22.4502 100.334 23.2646C100.1 24.0732 99.7307 24.7705 99.2268 25.3564C98.7229 25.9424 98.0754 26.3936 97.2844 26.71C96.4934 27.0205 95.5471 27.1758 94.4455 27.1758C93.3674 27.1758 92.4328 27.0205 91.6418 26.71C90.8566 26.3936 90.2092 25.9453 89.6994 25.3652C89.1897 24.7793 88.8117 24.0791 88.5656 23.2646C88.3195 22.4502 88.1965 21.542 88.1965 20.54C88.1965 19.2041 88.4162 18.0439 88.8557 17.0596C89.301 16.0693 89.9865 15.3047 90.9123 14.7656C91.8381 14.2207 93.0217 13.9482 94.4631 13.9482C95.9279 13.9482 97.1174 14.2207 98.0314 14.7656C98.9514 15.3105 99.6252 16.0781 100.053 17.0684C100.481 18.0586 100.695 19.2217 100.695 20.5576ZM91.8527 20.5576C91.8527 21.3311 91.9406 21.9961 92.1164 22.5527C92.2922 23.1094 92.5705 23.5371 92.9514 23.8359C93.3322 24.1348 93.8303 24.2842 94.4455 24.2842C95.0842 24.2842 95.591 24.1348 95.966 23.8359C96.3469 23.5371 96.6193 23.1094 96.7834 22.5527C96.9533 21.9961 97.0383 21.3311 97.0383 20.5576C97.0383 19.3975 96.8449 18.4805 96.4582 17.8066C96.0715 17.1328 95.4064 16.7959 94.4631 16.7959C93.8361 16.7959 93.3293 16.9482 92.9426 17.2529C92.5617 17.5576 92.2834 17.9912 92.1076 18.5537C91.9377 19.1162 91.8527 19.7842 91.8527 20.5576ZM108.125 14.1504C109.291 14.1504 110.261 14.2939 111.034 14.5811C111.807 14.8623 112.387 15.2842 112.774 15.8467C113.167 16.4092 113.363 17.1094 113.363 17.9473C113.363 18.4688 113.275 18.9434 113.099 19.3711C112.924 19.7988 112.672 20.1826 112.344 20.5225C112.021 20.8564 111.635 21.1494 111.183 21.4014L114.928 27H110.99L108.265 22.3242H107.387V27H103.915V14.1504H108.125ZM108.072 16.7783H107.387V19.7139H108.037C108.57 19.7139 109.007 19.5967 109.346 19.3623C109.686 19.1279 109.856 18.709 109.856 18.1055C109.856 17.6895 109.716 17.3643 109.434 17.1299C109.153 16.8955 108.699 16.7783 108.072 16.7783ZM124.625 27H116.996V14.1504H124.625V16.9365H120.468V18.958H124.318V21.7441H120.468V24.1699H124.625V27Z" fill="white"/>
<rect x="90" y="30" width="10" height="3" fill="white"/>
</svg>
