<svg width="120" height="42" viewBox="0 0 120 42" fill="none" xmlns="http://www.w3.org/2000/svg">
<circle cx="90" cy="21" r="21" fill="#65B9FF"/>
<path d="M1.38867 28V15.1504H4.87793V28H1.38867ZM13.4427 28L10.8148 18.7451H10.7357C10.7591 18.9854 10.7825 19.3105 10.806 19.7207C10.8353 20.1309 10.8616 20.5732 10.8851 21.0479C10.9085 21.5225 10.9202 21.9795 10.9202 22.4189V28H7.84406V15.1504H12.4671L15.1478 24.2734H15.2181L17.846 15.1504H22.4779V28H19.2874V22.3662C19.2874 21.9619 19.2933 21.5283 19.305 21.0654C19.3226 20.5967 19.3402 20.1572 19.3577 19.7471C19.3812 19.3311 19.4017 19.0029 19.4193 18.7627H19.3402L16.7474 28H13.4427ZM33.3102 28L32.6774 25.5918H28.5026L27.8522 28H24.0377L28.2301 15.0977H32.862L37.1071 28H33.3102ZM31.9567 22.7441L31.403 20.6348C31.3444 20.4062 31.2594 20.0811 31.1481 19.6592C31.0368 19.2314 30.9254 18.792 30.8141 18.3408C30.7086 17.8838 30.6266 17.5088 30.568 17.2158C30.5153 17.5088 30.4391 17.8721 30.3395 18.3057C30.2457 18.7334 30.1461 19.1582 30.0407 19.5801C29.9411 20.002 29.8532 20.3535 29.777 20.6348L29.2233 22.7441H31.9567ZM43.8437 20.4766H49.3896V27.4023C48.7275 27.6309 47.9687 27.8184 47.1132 27.9648C46.2578 28.1055 45.3613 28.1758 44.4238 28.1758C43.1875 28.1758 42.1035 27.9355 41.1718 27.4551C40.2402 26.9746 39.5136 26.2451 38.9921 25.2666C38.4707 24.2822 38.2099 23.04 38.2099 21.54C38.2099 20.1924 38.4677 19.0293 38.9834 18.0508C39.499 17.0664 40.2578 16.3076 41.2597 15.7744C42.2675 15.2354 43.5009 14.9658 44.9599 14.9658C45.7627 14.9658 46.5244 15.042 47.2451 15.1943C47.9658 15.3467 48.5927 15.54 49.1259 15.7744L48.0273 18.499C47.5644 18.2705 47.0839 18.1006 46.5859 17.9893C46.0879 17.8721 45.5517 17.8135 44.9775 17.8135C44.2099 17.8135 43.5918 17.9863 43.123 18.332C42.6601 18.6777 42.3232 19.1406 42.1123 19.7207C41.9013 20.2949 41.7959 20.9307 41.7959 21.6279C41.7959 22.4248 41.9072 23.0986 42.1298 23.6494C42.3584 24.1943 42.6894 24.6104 43.123 24.8975C43.5625 25.1787 44.0927 25.3193 44.7138 25.3193C44.9189 25.3193 45.1679 25.3047 45.4609 25.2754C45.7597 25.2461 45.9853 25.2109 46.1377 25.1699V23.1572H43.8437V20.4766ZM59.8177 28H52.1888V15.1504H59.8177V17.9365H55.6604V19.958H59.51V22.7441H55.6604V25.1699H59.8177V28ZM70.65 24.0977C70.65 24.7949 70.4742 25.457 70.1227 26.084C69.7711 26.7051 69.2232 27.209 68.4791 27.5957C67.7408 27.9824 66.7857 28.1758 65.6139 28.1758C65.0279 28.1758 64.5123 28.1494 64.067 28.0967C63.6275 28.0439 63.2174 27.959 62.8365 27.8418C62.4557 27.7188 62.0602 27.5605 61.65 27.3672V24.2734C62.3473 24.625 63.0504 24.8945 63.7594 25.082C64.4684 25.2637 65.11 25.3545 65.6842 25.3545C66.0299 25.3545 66.3111 25.3135 66.5279 25.2314C66.7506 25.1494 66.9146 25.0381 67.0201 24.8975C67.1256 24.751 67.1783 24.584 67.1783 24.3965C67.1783 24.1738 67.0992 23.9863 66.941 23.834C66.7887 23.6758 66.5426 23.5117 66.2027 23.3418C65.8629 23.1719 65.4146 22.9609 64.858 22.709C64.3834 22.4863 63.9527 22.2578 63.566 22.0234C63.1852 21.7891 62.857 21.5225 62.5816 21.2236C62.3121 20.9189 62.1041 20.5645 61.9576 20.1602C61.8111 19.7559 61.7379 19.2783 61.7379 18.7275C61.7379 17.9014 61.94 17.21 62.3443 16.6533C62.7545 16.0908 63.3229 15.6689 64.0494 15.3877C64.7818 15.1064 65.6256 14.9658 66.5807 14.9658C67.4186 14.9658 68.1715 15.0596 68.8395 15.2471C69.5133 15.4346 70.1168 15.6484 70.65 15.8887L69.5865 18.5693C69.0357 18.3174 68.4938 18.1182 67.9605 17.9717C67.4273 17.8193 66.9322 17.7432 66.4752 17.7432C66.1764 17.7432 65.9303 17.7812 65.7369 17.8574C65.5494 17.9277 65.4088 18.0244 65.315 18.1475C65.2271 18.2705 65.1832 18.4111 65.1832 18.5693C65.1832 18.7686 65.2594 18.9473 65.4117 19.1055C65.5699 19.2637 65.8307 19.4365 66.1939 19.624C66.5631 19.8057 67.0641 20.043 67.6969 20.3359C68.3238 20.6172 68.857 20.9219 69.2965 21.25C69.7359 21.5723 70.0699 21.9619 70.2984 22.4189C70.5328 22.8701 70.65 23.4297 70.65 24.0977ZM78.4853 28H75.0136V17.9893H71.8759V15.1504H81.6142V17.9893H78.4853V28ZM95.6545 21.5576C95.6545 22.5479 95.5344 23.4502 95.2942 24.2646C95.0598 25.0732 94.6907 25.7705 94.1868 26.3564C93.6829 26.9424 93.0354 27.3936 92.2444 27.71C91.4534 28.0205 90.5071 28.1758 89.4055 28.1758C88.3274 28.1758 87.3928 28.0205 86.6018 27.71C85.8166 27.3936 85.1692 26.9453 84.6594 26.3652C84.1497 25.7793 83.7717 25.0791 83.5256 24.2646C83.2795 23.4502 83.1565 22.542 83.1565 21.54C83.1565 20.2041 83.3762 19.0439 83.8157 18.0596C84.261 17.0693 84.9465 16.3047 85.8723 15.7656C86.7981 15.2207 87.9817 14.9482 89.4231 14.9482C90.8879 14.9482 92.0774 15.2207 92.9914 15.7656C93.9114 16.3105 94.5852 17.0781 95.0129 18.0684C95.4407 19.0586 95.6545 20.2217 95.6545 21.5576ZM86.8127 21.5576C86.8127 22.3311 86.9006 22.9961 87.0764 23.5527C87.2522 24.1094 87.5305 24.5371 87.9114 24.8359C88.2922 25.1348 88.7903 25.2842 89.4055 25.2842C90.0442 25.2842 90.551 25.1348 90.926 24.8359C91.3069 24.5371 91.5793 24.1094 91.7434 23.5527C91.9133 22.9961 91.9983 22.3311 91.9983 21.5576C91.9983 20.3975 91.8049 19.4805 91.4182 18.8066C91.0315 18.1328 90.3664 17.7959 89.4231 17.7959C88.7961 17.7959 88.2893 17.9482 87.9026 18.2529C87.5217 18.5576 87.2434 18.9912 87.0676 19.5537C86.8977 20.1162 86.8127 20.7842 86.8127 21.5576ZM102.365 15.1504C103.531 15.1504 104.501 15.2939 105.274 15.5811C106.047 15.8623 106.628 16.2842 107.014 16.8467C107.407 17.4092 107.603 18.1094 107.603 18.9473C107.603 19.4688 107.515 19.9434 107.339 20.3711C107.164 20.7988 106.912 21.1826 106.584 21.5225C106.261 21.8564 105.875 22.1494 105.423 22.4014L109.168 28H105.23L102.505 23.3242H101.627V28H98.1548V15.1504H102.365ZM102.312 17.7783H101.627V20.7139H102.277C102.81 20.7139 103.247 20.5967 103.586 20.3623C103.926 20.1279 104.096 19.709 104.096 19.1055C104.096 18.6895 103.956 18.3643 103.674 18.1299C103.393 17.8955 102.939 17.7783 102.312 17.7783ZM118.145 28H110.516V15.1504H118.145V17.9365H113.988V19.958H117.838V22.7441H113.988V25.1699H118.145V28Z" fill="#1E1E1E"/>
</svg>
