<svg width="20" height="14" viewBox="0 0 20 14" fill="none" xmlns="http://www.w3.org/2000/svg">
<path d="M9.98879 6.5502C9.74643 6.5502 9.54973 6.3535 9.54973 6.11114V3.76698C9.54973 3.52462 9.74643 3.32792 9.98879 3.32792C10.4687 3.32792 10.8588 2.93759 10.8588 2.4577C10.8588 1.9778 10.4687 1.58748 9.98879 1.58748C9.5089 1.58748 9.11857 1.9778 9.11857 2.4577C9.11857 2.70006 8.92187 2.89676 8.67951 2.89676C8.43715 2.89676 8.24045 2.70006 8.24045 2.4577C8.24045 1.49374 9.02483 0.709351 9.98879 0.709351C10.9528 0.709351 11.7369 1.49374 11.7369 2.4577C11.7369 3.26996 11.18 3.9549 10.4279 4.15028V6.11136C10.4279 6.35372 10.2314 6.5502 9.98879 6.5502Z" fill="#E5E0CF"/>
<path d="M9.85003 1.59844C9.81118 1.59098 9.77232 1.58746 9.73171 1.58746C9.3225 1.58746 8.98947 1.97779 8.98947 2.45769C8.98947 2.68819 8.83733 2.87523 8.64481 2.89324C8.65644 2.89411 8.66764 2.89675 8.67971 2.89675C8.92207 2.89675 9.11877 2.70005 9.11877 2.45769C9.11855 2.02543 9.43644 1.66562 9.85003 1.59844Z" fill="#CEC8BA"/>
<path d="M9.98878 0.709351C9.94202 0.709351 9.89592 0.712863 9.85004 0.716376C10.6169 0.787504 11.2228 1.5405 11.2228 2.4577C11.2228 3.26996 10.7477 3.9549 10.1062 4.15028V6.11136C10.1062 6.30498 9.99866 6.46744 9.85004 6.52583C9.89394 6.54054 9.94004 6.55042 9.98878 6.55042C10.2311 6.55042 10.4278 6.35372 10.4278 6.11136V4.15028C11.18 3.9549 11.7369 3.26996 11.7369 2.4577C11.7369 1.49374 10.9527 0.709351 9.98878 0.709351Z" fill="#CEC8BA"/>
<path d="M19.082 13.2808H0.895577C0.548498 13.2808 0.267059 12.9994 0.267059 12.6523C0.267059 12.3052 0.548498 12.0238 0.895577 12.0238H19.0822C19.4293 12.0238 19.7107 12.3052 19.7107 12.6523C19.7107 12.9994 19.4291 13.2808 19.082 13.2808Z" fill="#E5E0CF"/>
<path d="M1.69445 12.0238H0.895574L0.894257 12.9155L0.895574 13.2766L0.894257 13.2806H19.082L18.7746 12.9153H3.08276C2.45666 12.8977 2.05602 12.4707 1.69445 12.0238Z" fill="#CEC8BA"/>
<path d="M19.5081 11.7955L13.0888 7.64609C12.9733 7.56509 12.8594 7.48891 12.7465 7.41624C12.4368 5.71883 11.1332 4.93313 9.94883 4.93005C9.94664 4.93005 9.94444 4.93005 9.94203 4.93005C8.69333 4.93005 7.38383 5.82091 7.10722 7.52843C7.04839 7.56794 6.99021 7.60526 6.93072 7.64697L0.47145 11.7944C0.105931 12.029 -0.000102714 12.5155 0.234576 12.881C0.384736 13.1151 0.638294 13.2426 0.897121 13.2426C1.04267 13.2426 1.18976 13.2024 1.32126 13.1179L8.46524 8.53081C9.59693 7.88451 10.4459 7.88868 11.5817 8.54486L18.6541 13.1166C19.0188 13.3526 19.5057 13.2488 19.7417 12.883C19.9772 12.5182 19.8727 12.0315 19.5081 11.7955Z" fill="#FFCC66"/>
<path d="M7.80665 8.53082L0.662669 13.1179C0.633032 13.137 0.602518 13.1528 0.571564 13.1675C0.674304 13.2143 0.784289 13.2426 0.897129 13.2426C1.04268 13.2426 1.18976 13.2024 1.32126 13.1179L8.46525 8.53082C8.90146 8.28165 9.29552 8.1304 9.68035 8.07464C9.07533 7.98792 8.49291 8.13896 7.80665 8.53082Z" fill="#D8B356"/>
<path d="M19.5081 11.7955L13.0888 7.64609C12.9733 7.56509 12.8594 7.48891 12.7465 7.41624C12.4368 5.71883 11.1332 4.93313 9.94882 4.93005C9.94663 4.93005 9.94443 4.93005 9.94202 4.93005C9.83335 4.93005 9.72424 4.93927 9.61536 4.95267C10.7034 5.08592 11.8061 5.87316 12.0877 7.41624C12.2003 7.48891 12.3143 7.56509 12.43 7.64609L18.8495 11.7955C19.2141 12.0314 19.3186 12.5181 19.0831 12.883C18.9994 13.0125 18.8837 13.1072 18.7538 13.1675C19.1035 13.3289 19.5265 13.2165 19.7417 12.883C19.9772 12.5181 19.8727 12.0314 19.5081 11.7955Z" fill="#D8B356"/>
</svg>
