<svg xmlns="http://www.w3.org/2000/svg" xmlns:xlink="http://www.w3.org/1999/xlink" version="1.1" width="256" height="256" viewBox="0 0 256 256" xml:space="preserve">

<defs>
</defs>
<g style="stroke: none; stroke-width: 0; stroke-dasharray: none; stroke-linecap: butt; stroke-linejoin: miter; stroke-miterlimit: 10; fill: none; fill-rule: nonzero; opacity: 1;" transform="translate(1.4065934065934016 1.4065934065934016) scale(2.81 2.81)" >
	<path d="M 14.093 70.932 c -0.552 0 -1 -0.447 -1 -1 V 55.034 c 0 -0.553 0.448 -1 1 -1 s 1 0.447 1 1 v 14.897 C 15.093 70.484 14.645 70.932 14.093 70.932 z" style="stroke: none; stroke-width: 1; stroke-dasharray: none; stroke-linecap: butt; stroke-linejoin: miter; stroke-miterlimit: 10; fill: rgb(170,170,170); fill-rule: nonzero; opacity: 1;" transform=" matrix(1 0 0 1 0 0) " stroke-linecap="round" />
	<path d="M 14.093 35.966 c -0.552 0 -1 -0.448 -1 -1 V 20.068 c 0 -0.552 0.448 -1 1 -1 s 1 0.448 1 1 v 14.897 C 15.093 35.518 14.645 35.966 14.093 35.966 z" style="stroke: none; stroke-width: 1; stroke-dasharray: none; stroke-linecap: butt; stroke-linejoin: miter; stroke-miterlimit: 10; fill: rgb(170,170,170); fill-rule: nonzero; opacity: 1;" transform=" matrix(1 0 0 1 0 0) " stroke-linecap="round" />
	<path d="M 85.941 5.884 H 34.28 c -0.552 0 -1 -0.448 -1 -1 s 0.448 -1 1 -1 h 51.662 c 0.553 0 1 0.448 1 1 S 86.494 5.884 85.941 5.884 z" style="stroke: none; stroke-width: 1; stroke-dasharray: none; stroke-linecap: butt; stroke-linejoin: miter; stroke-miterlimit: 10; fill: rgb(170,170,170); fill-rule: nonzero; opacity: 1;" transform=" matrix(1 0 0 1 0 0) " stroke-linecap="round" />
	<path d="M 85.941 40.85 H 34.28 c -0.552 0 -1 -0.448 -1 -1 s 0.448 -1 1 -1 h 51.662 c 0.553 0 1 0.448 1 1 S 86.494 40.85 85.941 40.85 z" style="stroke: none; stroke-width: 1; stroke-dasharray: none; stroke-linecap: butt; stroke-linejoin: miter; stroke-miterlimit: 10; fill: rgb(170,170,170); fill-rule: nonzero; opacity: 1;" transform=" matrix(1 0 0 1 0 0) " stroke-linecap="round" />
	<path d="M 85.941 75.815 H 34.28 c -0.552 0 -1 -0.447 -1 -1 s 0.448 -1 1 -1 h 51.662 c 0.553 0 1 0.447 1 1 S 86.494 75.815 85.941 75.815 z" style="stroke: none; stroke-width: 1; stroke-dasharray: none; stroke-linecap: butt; stroke-linejoin: miter; stroke-miterlimit: 10; fill: rgb(170,170,170); fill-rule: nonzero; opacity: 1;" transform=" matrix(1 0 0 1 0 0) " stroke-linecap="round" />
	<path d="M 82.508 86.116 H 34.28 c -0.552 0 -1 -0.447 -1 -1 s 0.448 -1 1 -1 h 48.228 c 0.553 0 1 0.447 1 1 S 83.061 86.116 82.508 86.116 z" style="stroke: none; stroke-width: 1; stroke-dasharray: none; stroke-linecap: butt; stroke-linejoin: miter; stroke-miterlimit: 10; fill: rgb(170,170,170); fill-rule: nonzero; opacity: 1;" transform=" matrix(1 0 0 1 0 0) " stroke-linecap="round" />
	<path d="M 73.925 51.15 H 34.28 c -0.552 0 -1 -0.447 -1 -1 s 0.448 -1 1 -1 h 39.645 c 0.553 0 1 0.447 1 1 S 74.478 51.15 73.925 51.15 z" style="stroke: none; stroke-width: 1; stroke-dasharray: none; stroke-linecap: butt; stroke-linejoin: miter; stroke-miterlimit: 10; fill: rgb(170,170,170); fill-rule: nonzero; opacity: 1;" transform=" matrix(1 0 0 1 0 0) " stroke-linecap="round" />
	<path d="M 79.074 16.184 H 34.28 c -0.552 0 -1 -0.448 -1 -1 s 0.448 -1 1 -1 h 44.794 c 0.553 0 1 0.448 1 1 S 79.627 16.184 79.074 16.184 z" style="stroke: none; stroke-width: 1; stroke-dasharray: none; stroke-linecap: butt; stroke-linejoin: miter; stroke-miterlimit: 10; fill: rgb(170,170,170); fill-rule: nonzero; opacity: 1;" transform=" matrix(1 0 0 1 0 0) " stroke-linecap="round" />
	<circle cx="14.094000000000001" cy="45.004" r="10.034" style="stroke: none; stroke-width: 1; stroke-dasharray: none; stroke-linecap: butt; stroke-linejoin: miter; stroke-miterlimit: 10; fill: rgb(252,181,68); fill-rule: nonzero; opacity: 1;" transform="  matrix(1 0 0 1 0 0) "/>
	<circle cx="14.094000000000001" cy="10.034" r="10.034" style="stroke: none; stroke-width: 1; stroke-dasharray: none; stroke-linecap: butt; stroke-linejoin: miter; stroke-miterlimit: 10; fill: rgb(248,72,97); fill-rule: nonzero; opacity: 1;" transform="  matrix(1 0 0 1 0 0) "/>
	<circle cx="14.094000000000001" cy="79.96400000000001" r="10.034" style="stroke: none; stroke-width: 1; stroke-dasharray: none; stroke-linecap: butt; stroke-linejoin: miter; stroke-miterlimit: 10; fill: rgb(17,105,211); fill-rule: nonzero; opacity: 1;" transform="  matrix(1 0 0 1 0 0) "/>
</g>
</svg>